<svg width="22px" height="28px" viewBox="0 0 220 280" version="1.1" xmlns="http://www.w3.org/2000/svg">
<g id="#3e4a51ff">
<path fill="#3e4a51" opacity="1.00" d=" M 106.53 0.00 L 113.42 0.00 C 126.65 0.95 139.45 6.83 148.63 16.42 C 158.52 26.47 164.08 40.40 164.40 54.45 C 175.28 54.46 186.17 54.36 197.05 54.49 C 201.00 54.50 204.24 58.15 204.27 62.02 C 209.59 121.59 214.49 181.21 220.00 240.76 L 220.00 245.91 C 218.99 254.25 215.16 262.20 209.08 268.02 C 201.96 275.08 192.22 279.01 182.34 280.00 L 37.76 280.00 C 26.48 278.96 15.38 273.87 8.14 265.00 C 3.63 259.67 0.97 252.99 0.00 246.12 L 0.00 241.54 C 5.41 181.52 10.44 121.46 15.80 61.44 C 16.03 57.75 19.25 54.46 23.01 54.49 C 33.87 54.37 44.73 54.46 55.60 54.46 C 55.92 40.63 61.29 26.92 70.90 16.91 C 80.11 7.05 93.09 0.98 106.53 0.00 M 81.79 27.78 C 75.01 34.91 71.14 44.61 70.88 54.42 C 96.96 54.45 123.04 54.44 149.12 54.43 C 148.86 45.11 145.39 35.90 139.21 28.90 C 132.19 20.77 121.71 15.71 110.96 15.51 C 100.06 15.17 89.20 19.82 81.79 27.78 M 30.27 70.01 C 25.29 127.32 20.29 184.63 15.31 241.93 C 14.93 246.71 16.84 251.45 19.86 255.09 C 24.99 261.26 33.09 264.45 41.02 264.49 C 86.35 264.52 131.68 264.48 177.02 264.51 C 187.66 265.08 199.39 259.75 203.50 249.42 C 205.22 245.55 204.73 241.26 204.28 237.18 C 199.41 181.46 194.53 125.74 189.68 70.01 C 181.22 69.99 172.76 69.99 164.31 70.01 C 164.27 78.00 164.39 86.00 164.26 93.98 C 164.20 97.80 160.78 101.17 156.96 101.19 C 152.97 101.45 149.27 98.01 149.14 94.03 C 148.94 86.03 149.13 78.01 149.05 70.01 C 123.00 70.00 96.94 70.00 70.88 70.01 C 70.81 78.02 71.00 86.04 70.80 94.05 C 70.67 98.02 66.99 101.42 63.01 101.19 C 59.19 101.18 55.75 97.82 55.68 94.00 C 55.54 86.01 55.66 78.01 55.63 70.02 C 47.18 69.98 38.72 70.00 30.27 70.01 Z" />
</g>
</svg>
