<svg width="20px" height="13px" viewBox="0 0 200 130" version="1.1" xmlns="http://www.w3.org/2000/svg">
<g id="#da983aff">
<path fill="#da983a" opacity="1.00" d=" M 189.47 10.42 C 191.06 8.92 193.56 8.43 195.50 9.56 C 198.63 11.11 198.95 15.99 196.06 17.94 C 149.57 54.51 103.04 91.02 56.54 127.58 C 55.01 128.91 53.07 129.61 51.10 130.00 L 49.19 130.00 C 47.07 129.75 45.07 128.90 43.42 127.56 C 30.44 117.83 17.46 108.08 4.47 98.36 C 2.21 97.00 1.23 93.81 2.67 91.52 C 4.03 88.92 7.84 88.21 10.08 90.08 C 23.41 100.02 36.67 110.05 50.01 119.98 C 96.51 83.48 142.98 46.95 189.47 10.42 Z" />
</g>
</svg>