<svg width="24px" height="24px" viewBox="0 0 240 240" version="1.1" xmlns="http://www.w3.org/2000/svg">
<g id="#58656cff">
<path fill="#58656c" opacity="1.00" d=" M 28.30 42.16 C 32.71 36.86 37.98 32.35 42.73 27.35 C 43.39 28.89 44.64 30.00 45.85 31.11 C 69.00 54.27 92.14 77.44 115.29 100.60 C 116.98 102.23 118.50 104.07 120.42 105.46 C 146.09 79.44 172.07 53.71 197.93 27.88 C 202.79 32.42 207.29 37.34 212.15 41.90 C 187.52 66.37 163.05 90.99 138.45 115.48 C 136.95 116.88 135.54 118.39 134.35 120.07 C 135.62 120.98 136.80 122.03 137.87 123.18 C 162.03 147.40 186.24 171.57 210.39 195.79 C 210.83 196.11 211.69 196.75 212.12 197.07 C 207.70 202.23 202.54 206.71 197.88 211.66 C 171.96 185.70 146.08 159.70 120.07 133.84 C 94.18 159.83 68.15 185.68 42.28 211.68 C 37.76 206.99 33.43 201.95 28.26 197.98 C 29.84 195.41 32.21 193.51 34.29 191.37 C 57.63 168.01 81.01 144.69 104.35 121.33 C 104.96 120.62 105.52 119.87 106.05 119.09 C 104.44 118.42 103.33 117.07 102.16 115.84 C 80.17 93.83 58.18 71.83 36.19 49.81 C 33.54 47.28 31.14 44.49 28.30 42.16 Z" />
</g>
</svg>