<svg width="24px" height="15px" viewBox="0 0 240 150" version="1.1" xmlns="http://www.w3.org/2000/svg">
<g id="#aeaeaeff">
<path fill="#aeaeae" opacity="1.00" d=" M 118.44 0.00 L 125.45 0.00 C 151.87 0.88 176.98 12.16 197.60 28.26 C 212.59 39.84 225.70 53.68 237.48 68.47 C 238.71 69.96 239.54 71.72 240.00 73.59 L 240.00 76.21 C 239.05 80.79 235.38 84.02 232.68 87.61 C 213.35 110.51 189.41 130.22 161.43 141.47 C 149.48 146.28 136.78 149.03 123.95 150.00 L 113.89 150.00 C 86.67 148.87 60.97 136.85 40.02 119.91 C 27.11 109.60 15.62 97.62 5.18 84.84 C 3.11 82.27 0.68 79.77 0.00 76.42 L 0.00 73.79 C 0.60 70.35 3.04 67.75 5.11 65.10 C 16.55 50.93 29.79 38.19 44.54 27.50 C 66.01 11.84 91.61 0.83 118.44 0.00 M 66.64 34.66 C 48.92 45.16 33.44 59.18 20.23 74.92 C 38.26 96.52 59.99 116.36 86.81 126.14 C 106.65 133.54 128.93 133.51 148.91 126.64 C 177.03 117.08 200.81 97.63 219.73 75.13 C 214.31 68.62 208.60 62.35 202.53 56.45 C 183.99 38.41 161.18 23.27 135.18 19.31 C 111.39 15.47 87.04 22.47 66.64 34.66 Z" />
<path fill="#aeaeae" opacity="1.00" d=" M 112.04 33.16 C 116.31 32.58 121.27 31.30 125.06 34.05 C 129.33 37.02 130.01 43.70 126.58 47.55 C 124.77 49.77 121.89 50.71 119.11 50.67 C 111.33 50.86 103.99 55.38 99.98 61.98 C 95.77 68.72 95.13 77.50 98.28 84.79 C 101.33 92.10 108.16 97.76 116.01 99.06 C 124.10 100.58 132.73 97.23 137.90 90.88 C 141.93 86.22 143.64 80.04 143.75 73.97 C 144.03 68.96 149.21 64.95 154.14 66.06 C 157.93 66.76 160.95 70.21 161.25 74.04 C 161.86 88.60 154.28 103.18 142.04 111.08 C 131.88 117.82 118.60 119.52 107.07 115.56 C 95.83 111.81 86.54 102.91 82.00 92.00 C 76.93 80.13 77.53 66.00 83.62 54.62 C 89.31 43.75 99.95 35.51 112.04 33.16 Z" />
</g>
</svg>