<svg width="9px" height="16px" viewBox="0 0 74 152" version="1.1" xmlns="http://www.w3.org/2000/svg">
<g id="#ffffffff">
<path fill="#ffffff" opacity="1.00" d=" M 31.85 4.61 C 40.64 0.60 50.53 0.93 59.98 0.94 C 64.65 1.04 69.34 0.69 74.00 1.17 L 74.00 26.73 C 67.63 27.25 61.17 26.32 54.85 27.38 C 52.08 27.82 49.67 30.04 49.51 32.93 C 48.96 38.63 49.40 44.39 49.18 50.11 C 57.45 50.15 65.73 50.07 74.00 50.16 L 74.00 50.84 C 72.82 59.20 72.07 67.61 71.04 76.00 C 63.76 76.01 56.47 75.99 49.18 76.01 C 49.19 101.02 49.19 126.04 49.18 151.06 C 38.26 151.03 27.34 151.13 16.42 151.01 C 16.45 126.01 16.43 101.00 16.43 76.00 C 10.95 75.98 5.48 76.03 0.00 75.97 L 0.00 50.17 C 5.48 50.07 10.95 50.14 16.43 50.12 C 16.79 39.69 15.20 28.87 18.82 18.84 C 20.97 12.55 25.78 7.30 31.85 4.61 Z" />
</g>
</svg>