<svg width="28px" height="24px" viewBox="0 0 280 240" version="1.1" xmlns="http://www.w3.org/2000/svg">
<g id="#3e4a51ff">
<path fill="#3e4a51" opacity="1.00" d=" M 72.83 0.00 L 81.29 0.00 C 96.06 0.83 110.65 5.64 122.73 14.23 C 129.16 18.64 134.49 24.36 140.09 29.73 C 145.67 24.37 151.00 18.67 157.42 14.28 C 173.07 3.20 192.91 -1.58 211.92 0.69 C 229.47 2.63 246.24 10.79 258.57 23.42 C 271.14 36.00 278.74 53.19 280.00 70.91 L 280.00 79.39 C 279.07 97.88 271.00 115.85 257.75 128.79 C 221.95 163.64 186.08 198.41 150.25 233.24 C 147.59 235.80 145.14 238.89 141.46 240.00 L 138.64 240.00 C 136.85 239.45 135.13 238.60 133.79 237.27 C 97.83 202.23 61.89 167.16 25.92 132.12 C 10.87 118.77 0.98 99.61 0.00 79.40 L 0.00 71.68 C 0.95 53.18 9.10 35.24 22.39 22.35 C 35.74 9.03 54.08 1.21 72.83 0.00 M 64.98 16.96 C 49.21 20.03 34.87 29.62 25.95 42.96 C 18.08 54.60 14.72 69.15 16.55 83.07 C 18.17 96.24 24.55 108.68 34.05 117.91 C 69.33 152.32 104.61 186.73 139.92 221.12 C 173.26 188.75 206.60 156.36 239.94 123.99 C 244.17 119.83 248.64 115.86 252.17 111.06 C 260.59 99.99 264.79 85.84 263.81 71.96 C 263.05 59.29 257.99 46.94 249.67 37.34 C 239.29 25.18 224.01 17.40 208.08 16.09 C 191.03 14.50 173.42 20.25 160.78 31.84 C 156.14 36.17 151.64 40.67 147.11 45.11 C 145.24 47.06 142.84 48.81 140.00 48.68 C 135.82 48.78 133.16 45.13 130.42 42.54 C 124.26 36.74 118.61 30.25 111.39 25.70 C 97.86 16.85 80.80 13.74 64.98 16.96 Z" />
</g>
</svg>
