<svg width="19px" height="18px" viewBox="0 0 176 171" version="1.1" xmlns="http://www.w3.org/2000/svg">
<g id="#fafafaff">
<path fill="#fafafa" opacity="1.00" d=" M 63.83 0.00 L 102.31 0.00 C 117.96 0.42 134.49 -0.90 149.04 6.00 C 162.09 12.03 171.36 24.84 173.75 38.93 C 175.80 50.83 175.28 62.97 175.50 74.99 C 175.43 90.00 175.72 105.03 174.99 120.02 C 174.68 127.35 173.49 134.72 170.61 141.50 C 165.85 153.01 155.82 162.11 144.03 166.04 C 133.45 169.80 122.06 169.63 110.99 169.93 C 91.29 169.95 71.58 170.32 51.90 169.51 C 39.60 169.06 26.76 166.02 17.31 157.72 C 7.02 149.31 1.96 136.08 1.19 123.08 C 0.06 103.40 0.59 83.68 0.57 63.98 C 0.84 52.53 0.57 40.69 4.84 29.86 C 9.37 17.71 19.74 8.01 32.02 3.95 C 42.20 0.26 53.17 0.49 63.83 0.00 M 73.36 15.40 C 67.24 15.44 61.12 15.44 55.01 15.74 C 45.09 15.98 34.24 17.58 26.77 24.73 C 19.69 31.07 17.24 40.89 16.84 50.05 C 15.98 69.03 16.39 88.04 16.39 107.03 C 16.79 116.46 16.25 126.29 19.90 135.20 C 22.78 142.70 29.18 148.66 36.73 151.32 C 45.76 154.66 55.54 154.18 65.00 154.55 C 85.01 154.54 105.04 154.99 125.04 154.05 C 135.31 153.63 146.27 150.22 152.57 141.58 C 159.73 131.94 159.21 119.33 159.59 107.93 C 159.62 88.78 160.01 69.61 159.18 50.47 C 158.81 41.41 156.58 31.67 149.75 25.23 C 142.81 18.20 132.52 16.16 123.00 15.82 C 106.46 15.13 89.91 15.44 73.36 15.40 Z" />
<path fill="#fafafa" opacity="1.00" d=" M 130.25 30.18 C 135.90 27.51 143.42 31.01 144.72 37.19 C 146.12 42.50 142.28 48.27 136.96 49.33 C 131.90 50.64 126.13 47.59 124.58 42.56 C 122.89 37.76 125.57 32.08 130.25 30.18 Z" />
<path fill="#fafafa" opacity="1.00" d=" M 77.41 42.71 C 89.04 39.93 101.76 41.80 111.98 48.06 C 121.76 53.94 129.19 63.73 131.91 74.85 C 134.63 85.66 132.89 97.51 127.13 107.06 C 120.70 117.94 109.40 125.71 97.00 128.04 C 84.81 130.43 71.68 127.71 61.57 120.44 C 52.32 113.89 45.68 103.68 43.79 92.47 C 41.95 82.00 44.20 70.88 50.01 61.98 C 56.19 52.33 66.27 45.33 77.41 42.71 M 81.46 57.64 C 67.18 60.54 56.54 75.52 59.47 89.98 C 61.85 105.23 78.06 115.99 93.07 113.08 C 108.20 111.01 120.05 95.40 116.86 80.23 C 114.30 64.38 96.84 53.62 81.46 57.64 Z" />
</g>
</svg>