<svg width="30px" height="48px" viewBox="0 0 300 480" version="1.1" xmlns="http://www.w3.org/2000/svg">
<g id="#3e4a51ff">
<path fill="#3e4a51" opacity="1.00" d=" M 28.28 0.00 L 271.26 0.00 C 275.91 0.94 280.00 5.02 279.97 9.93 C 280.03 29.65 280.01 49.39 279.98 69.11 C 280.10 74.37 275.00 78.48 269.96 78.34 C 255.48 78.44 241.00 78.33 226.52 78.39 C 222.54 88.17 218.52 97.95 214.55 107.74 C 239.69 107.78 264.84 107.70 289.98 107.78 C 294.88 107.76 299.01 111.75 300.00 116.41 L 300.00 472.10 C 299.15 476.31 295.49 479.24 291.39 480.00 L 7.97 480.00 C 4.06 479.27 0.88 476.28 0.00 472.39 L 0.00 116.44 C 0.77 111.67 4.95 107.45 9.98 107.76 C 34.95 107.73 59.93 107.77 84.90 107.74 C 80.89 97.95 76.93 88.14 72.87 78.37 C 58.25 78.34 43.63 78.45 29.01 78.32 C 24.12 78.34 19.81 73.96 19.99 69.05 C 19.88 49.70 19.96 30.35 19.95 11.00 C 19.56 5.89 23.17 0.90 28.28 0.00 M 40.06 19.63 C 40.06 32.67 40.05 45.71 40.07 58.75 C 113.38 58.75 186.68 58.74 259.99 58.76 C 260.01 45.71 260.00 32.67 259.99 19.63 C 186.68 19.63 113.37 19.62 40.06 19.63 M 94.54 78.39 C 98.53 88.17 102.54 97.94 106.51 107.73 C 135.30 107.78 164.09 107.73 192.88 107.76 C 196.92 97.98 200.90 88.18 204.89 78.38 C 168.11 78.39 131.33 78.35 94.54 78.39 M 20.02 127.36 C 19.98 238.37 20.01 349.37 20.00 460.37 C 106.65 460.38 193.29 460.38 279.93 460.37 C 279.93 349.37 279.96 238.37 279.92 127.37 C 193.29 127.38 106.66 127.39 20.02 127.36 Z" />
<path fill="#3e4a51" opacity="1.00" d=" M 148.29 196.38 C 171.93 195.77 195.64 204.12 213.88 219.14 C 236.37 237.38 250.25 266.00 249.69 295.04 C 249.46 300.76 243.45 305.11 237.92 303.93 C 233.21 303.21 229.45 298.76 229.69 293.96 C 229.66 274.61 221.94 255.49 208.67 241.43 C 193.72 225.28 171.91 215.90 149.93 215.92 C 144.89 216.15 140.10 212.08 139.73 207.02 C 139.10 201.91 143.21 196.92 148.29 196.38 Z" />
<path fill="#3e4a51" opacity="1.00" d=" M 55.34 285.41 C 61.39 282.21 69.73 286.92 69.71 293.85 C 69.69 311.36 75.72 328.79 86.73 342.43 C 101.54 361.17 125.09 372.52 148.96 372.57 C 153.96 372.20 158.97 375.88 159.63 380.93 C 160.71 386.61 155.75 392.33 150.00 392.22 C 123.88 392.46 97.88 382.01 79.23 363.72 C 61.02 346.16 50.03 321.30 49.71 295.96 C 49.18 291.70 51.34 287.19 55.34 285.41 Z" />
</g>
</svg>