<svg width="27px" height="18px" viewBox="0 0 270 180" version="1.1" xmlns="http://www.w3.org/2000/svg">
<g id="#3f4b52ff">
<path fill="#3f4b52" opacity="1.00" d=" M 0.00 0.00 L 270.00 0.00 L 270.00 180.00 L 0.00 180.00 L 0.00 0.00 M 24.37 13.38 C 61.23 45.97 98.12 78.52 135.00 111.09 C 171.86 78.54 208.74 45.99 245.58 13.42 C 171.85 13.32 98.11 13.40 24.37 13.38 M 13.32 21.51 C 13.32 67.14 13.29 112.77 13.33 158.39 C 39.17 135.60 64.99 112.78 90.81 89.97 C 64.98 67.15 39.15 44.34 13.32 21.51 M 179.18 89.97 C 205.01 112.78 230.83 135.61 256.68 158.40 C 256.70 112.77 256.69 67.14 256.68 21.52 C 230.85 44.34 205.01 67.15 179.18 89.97 M 24.28 166.63 C 98.08 166.61 171.88 166.65 245.68 166.61 C 220.15 144.03 194.60 121.47 169.05 98.92 C 157.69 108.93 146.36 118.97 135.00 128.99 C 123.64 118.97 112.31 108.94 100.95 98.92 C 75.38 121.48 49.84 144.06 24.28 166.63 Z" />
</g>
</svg>