<svg width="11px" height="14px" viewBox="0 0 110 140" version="1.1" xmlns="http://www.w3.org/2000/svg">
<g id="#3f4e57ff">
<path fill="#3f4e57" opacity="1.00" d=" M 50.93 0.00 L 58.84 0.00 C 79.23 1.38 97.97 19.15 97.80 40.06 C 98.19 43.39 95.43 46.61 92.07 46.61 C 88.86 46.80 85.36 47.20 82.36 45.83 C 78.54 43.66 79.66 38.66 78.66 35.07 C 76.03 24.74 65.60 17.26 55.01 17.54 C 42.71 17.12 30.74 27.47 30.64 40.03 C 30.44 50.01 30.63 60.01 30.56 70.00 C 54.08 70.04 77.60 69.92 101.12 70.05 C 105.39 69.89 109.05 73.16 110.00 77.22 L 110.00 132.95 C 109.03 136.58 106.08 139.23 102.43 140.00 L 7.72 140.00 C 4.05 139.36 1.16 136.70 0.00 133.19 L 0.00 77.37 C 0.95 71.59 6.99 69.40 12.19 69.76 C 12.20 60.16 12.16 50.56 12.19 40.96 C 12.19 34.85 13.44 28.69 16.24 23.24 C 22.89 10.27 36.40 1.24 50.93 0.00 Z" />
</g>
</svg>
