<svg width="28px" height="28px" viewBox="0 0 280 280" version="1.1" xmlns="http://www.w3.org/2000/svg">
<g id="#58656cff">
<path fill="#58656c" opacity="1.00" d=" M 136.92 0.00 L 144.98 0.00 C 156.15 0.69 167.80 3.08 176.77 10.18 C 182.29 14.44 186.21 20.63 187.68 27.46 C 195.48 33.54 198.69 43.54 199.16 53.09 C 199.67 65.04 199.18 77.01 199.43 88.97 C 202.74 92.08 205.63 96.30 205.12 101.06 C 204.48 109.03 202.04 116.75 199.24 124.20 C 198.51 126.74 196.31 128.28 194.15 129.56 C 193.25 134.64 193.72 139.95 191.86 144.84 C 190.27 149.17 187.77 153.23 184.52 156.51 C 181.05 159.67 174.77 157.57 173.85 152.98 C 172.64 148.16 177.51 145.11 179.02 141.04 C 180.96 135.62 179.49 129.47 182.17 124.22 C 183.46 120.76 187.17 118.90 188.25 115.35 C 189.88 110.51 191.13 105.54 191.87 100.49 C 188.93 99.61 185.90 97.54 186.08 94.09 C 185.84 81.72 186.13 69.34 185.95 56.98 C 185.77 51.88 185.28 46.59 182.86 42.01 C 181.23 38.74 177.56 37.40 175.31 34.70 C 173.42 32.15 174.74 28.61 173.08 25.96 C 169.34 19.65 162.16 16.44 155.28 14.84 C 144.18 12.52 132.03 12.36 121.74 17.70 C 105.31 26.10 93.68 44.31 94.73 62.97 C 94.70 73.30 94.89 83.64 94.66 93.97 C 94.72 97.36 91.75 99.46 88.91 100.54 C 89.53 105.63 90.90 110.60 92.52 115.46 C 93.66 118.97 97.35 120.85 98.60 124.33 C 101.20 129.51 99.68 135.65 102.11 140.86 C 105.10 147.76 110.27 153.39 115.80 158.36 C 118.65 160.72 118.01 164.75 117.50 167.97 C 115.67 178.29 111.96 188.39 105.94 197.02 C 101.60 203.12 95.68 208.40 88.43 210.68 C 70.77 216.64 52.95 222.18 35.44 228.52 C 28.17 231.85 22.52 238.48 20.40 246.18 C 17.81 255.80 15.64 265.54 13.02 275.16 C 12.51 277.60 10.40 279.07 8.25 280.00 L 5.39 280.00 C 2.77 279.30 0.82 277.34 0.00 274.78 L 0.00 272.43 C 2.44 262.67 4.86 252.91 7.36 243.17 C 10.74 230.09 21.00 219.12 33.79 214.81 C 48.73 209.79 63.70 204.87 78.65 199.88 C 83.19 198.35 88.20 197.25 91.58 193.58 C 98.76 186.13 102.16 175.92 104.31 166.01 C 97.33 159.26 91.14 151.26 88.33 141.84 C 87.13 138.11 87.46 134.12 86.62 130.33 C 85.35 128.34 82.65 127.55 81.89 125.15 C 78.81 117.39 76.28 109.26 75.58 100.89 C 75.17 96.16 78.09 92.02 81.33 88.88 C 81.50 77.96 81.21 67.03 81.47 56.11 C 82.62 40.68 90.42 26.15 101.56 15.58 C 111.09 6.50 123.78 0.89 136.92 0.00 Z" />
<path fill="#58656c" opacity="1.00" d=" M 192.11 169.18 C 199.62 157.62 213.17 150.31 226.97 150.49 C 240.50 150.41 253.76 157.49 261.27 168.73 C 267.00 176.87 268.97 187.03 268.38 196.84 C 270.82 196.88 273.32 196.67 275.71 197.31 C 277.96 198.02 279.24 200.15 280.00 202.24 L 280.00 274.33 C 279.23 277.54 276.46 279.64 273.23 280.00 L 181.37 280.00 C 177.46 280.09 173.46 277.21 173.69 273.04 C 173.52 250.69 173.71 228.34 173.60 206.00 C 173.61 203.43 173.65 200.44 175.80 198.64 C 178.31 196.24 182.08 197.01 185.23 196.82 C 184.79 187.20 186.58 177.24 192.11 169.18 M 208.57 170.60 C 200.85 176.89 197.81 187.20 198.62 196.88 C 217.43 196.87 236.25 196.88 255.06 196.87 C 255.86 187.28 252.89 177.04 245.28 170.75 C 235.26 161.67 218.67 161.60 208.57 170.60 M 187.01 210.18 C 186.99 228.93 187.00 247.69 187.00 266.44 C 213.57 266.43 240.13 266.45 266.69 266.43 C 266.68 247.68 266.69 228.94 266.69 210.19 C 240.13 210.18 213.57 210.20 187.01 210.18 Z" />
<path fill="#58656c" opacity="1.00" d=" M 216.92 224.95 C 221.56 218.44 232.38 218.53 236.90 225.13 C 241.29 230.68 239.39 239.26 233.53 242.99 C 233.19 246.84 234.59 251.51 231.60 254.61 C 228.47 258.04 222.12 256.75 220.61 252.35 C 219.81 249.32 220.30 246.11 220.16 243.01 C 214.25 239.22 212.35 230.50 216.92 224.95 Z" />
</g>
</svg>