<svg width="25px" height="14px" viewBox="0 0 250 140" version="1.1" xmlns="http://www.w3.org/2000/svg">
<g id="#58656cff">
<path fill="#58656c" opacity="1.00" d=" M 8.67 0.00 L 240.66 0.00 C 245.32 0.40 249.16 4.01 250.00 8.59 L 250.00 11.20 C 249.33 14.99 246.71 18.51 242.90 19.55 C 239.00 20.35 235.00 19.95 231.05 20.00 C 159.37 20.02 87.69 19.96 16.02 20.03 C 11.99 19.90 7.36 20.69 3.98 17.95 C 1.60 16.30 0.42 13.49 0.00 10.71 L 0.00 8.82 C 0.66 4.33 4.25 0.82 8.67 0.00 Z" />
<path fill="#58656c" opacity="1.00" d=" M 4.00 62.05 C 7.36 59.31 11.99 60.10 16.01 59.98 C 87.68 60.04 159.36 59.98 231.04 60.00 C 234.98 60.05 238.97 59.66 242.87 60.43 C 246.62 61.46 249.20 64.88 250.00 68.59 L 250.00 71.20 C 249.33 74.99 246.69 78.51 242.89 79.55 C 238.96 80.33 234.93 79.95 230.96 80.00 C 159.31 80.02 87.66 79.97 16.01 80.02 C 11.97 79.90 7.31 80.69 3.94 77.91 C 1.77 76.40 0.69 73.87 0.00 71.41 L 0.00 69.36 C 0.38 66.54 1.59 63.72 4.00 62.05 Z" />
<path fill="#58656c" opacity="1.00" d=" M 0.00 129.30 C 0.39 123.83 5.50 119.50 10.96 120.00 C 86.98 120.00 163.00 120.00 239.01 120.00 C 244.27 119.52 249.09 123.44 250.00 128.58 L 250.00 131.19 C 249.31 135.86 245.40 139.62 240.67 140.00 L 8.86 140.00 C 4.40 139.35 0.83 135.82 0.00 131.41 L 0.00 129.30 Z" />
</g>
</svg>