<svg width="26px" height="26px" viewBox="0 0 260 260" version="1.1" xmlns="http://www.w3.org/2000/svg">
<g id="#58656cff">
<path fill="#58656c" opacity="1.00" d=" M 142.46 0.00 L 144.83 0.00 C 174.59 4.96 202.53 19.86 223.24 41.79 C 242.43 61.77 255.34 87.58 260.00 114.88 L 260.00 117.18 C 259.24 120.44 256.47 123.24 252.99 123.26 C 248.85 123.64 245.34 120.11 245.04 116.11 C 241.81 97.90 234.45 80.44 223.62 65.44 C 205.09 39.57 176.50 20.96 145.13 15.23 C 142.09 14.79 138.64 13.78 137.28 10.70 C 134.98 6.44 137.90 1.06 142.46 0.00 Z" />
<path fill="#58656c" opacity="1.00" d=" M 42.17 16.20 C 50.97 13.18 60.97 16.12 67.50 22.54 C 77.42 31.95 86.75 41.97 96.56 51.51 C 101.51 56.16 105.86 61.97 106.86 68.87 C 108.24 76.79 104.87 84.87 99.41 90.54 C 93.44 96.72 87.39 102.83 81.14 108.72 C 85.90 118.82 92.42 127.98 99.69 136.41 C 114.14 153.11 130.81 168.60 150.89 178.22 C 156.06 172.95 161.38 167.83 166.56 162.58 C 169.58 159.52 172.87 156.62 176.82 154.84 C 186.06 150.23 197.70 152.88 204.75 160.19 C 214.65 169.95 224.35 179.91 234.24 189.69 C 238.40 193.66 242.06 198.42 243.47 204.10 C 245.71 212.30 242.95 221.23 237.41 227.49 C 231.64 233.99 224.85 239.51 219.19 246.13 C 212.15 254.27 201.79 259.07 191.13 260.00 L 183.35 260.00 C 169.35 258.81 155.76 254.71 142.94 249.08 C 107.04 233.38 75.12 208.99 49.90 179.06 C 33.67 159.77 19.49 138.51 9.91 115.11 C 4.88 103.06 0.97 90.41 0.00 77.33 L 0.00 69.50 C 0.45 63.35 1.87 57.20 4.83 51.75 C 8.80 44.10 15.72 38.72 21.51 32.54 C 27.86 26.52 33.41 18.83 42.17 16.20 M 47.18 30.27 C 44.14 31.14 41.79 33.37 39.63 35.56 C 33.85 41.48 27.84 47.16 22.10 53.12 C 17.97 57.36 15.49 63.07 15.09 68.97 C 14.07 81.89 17.88 94.55 22.54 106.45 C 31.65 129.84 45.74 150.98 61.87 170.10 C 86.45 199.10 117.73 222.55 152.88 237.17 C 164.05 241.63 175.87 245.15 187.98 245.19 C 195.84 245.25 203.59 241.73 208.63 235.69 C 214.40 228.81 221.63 223.29 227.28 216.31 C 230.51 212.34 229.82 206.38 226.25 202.88 C 216.17 192.56 205.86 182.47 195.71 172.23 C 193.55 170.04 191.11 167.76 187.91 167.42 C 184.28 166.95 181.01 169.13 178.55 171.56 C 172.17 177.86 165.90 184.27 159.51 190.55 C 156.59 193.53 152.03 194.85 148.03 193.47 C 128.62 184.77 111.79 171.16 97.13 155.89 C 85.49 143.55 74.52 130.17 67.48 114.60 C 65.96 111.37 64.89 107.60 66.14 104.10 C 66.95 101.53 68.91 99.59 70.84 97.82 C 76.63 92.59 81.97 86.90 87.54 81.44 C 90.05 78.94 92.56 75.82 92.37 72.06 C 92.08 67.83 88.81 64.79 85.98 62.00 C 76.53 52.76 67.46 43.15 57.97 33.95 C 55.24 31.12 51.18 28.96 47.18 30.27 Z" />
<path fill="#58656c" opacity="1.00" d=" M 139.37 47.55 C 140.90 46.96 142.57 47.15 144.16 47.40 C 160.36 50.32 175.62 58.14 187.52 69.52 C 200.78 82.08 209.95 99.00 212.82 117.06 C 213.54 121.18 210.16 125.35 205.98 125.51 C 202.13 125.90 198.46 122.89 198.04 119.06 C 194.99 101.42 184.84 85.24 170.44 74.65 C 161.34 67.74 150.46 63.58 139.29 61.52 C 132.82 59.69 132.96 49.39 139.37 47.55 Z" />
</g>
</svg>