<svg width="39px" height="48px" viewBox="0 0 390 480" version="1.1" xmlns="http://www.w3.org/2000/svg">
<g id="#3e4a51ff">
<path fill="#3e4a51" opacity="1.00" d=" M 195.21 0.00 L 195.31 0.00 C 208.18 14.13 221.06 28.26 233.97 42.37 C 252.27 36.57 270.56 30.73 288.86 24.95 C 293.07 43.75 296.91 62.65 301.31 81.41 C 320.05 85.31 338.73 89.49 357.43 93.56 C 351.67 111.88 345.63 130.11 340.04 148.48 C 354.29 161.22 368.34 174.19 382.50 187.04 C 368.35 199.84 354.38 212.86 340.09 225.49 C 345.52 243.93 351.70 262.16 357.43 280.51 C 342.02 283.94 326.57 287.24 311.15 290.63 C 335.55 332.97 359.99 375.28 384.41 417.61 C 386.45 421.37 389.19 424.90 390.00 429.20 L 390.00 432.05 C 389.28 434.62 387.77 437.09 385.26 438.23 C 382.05 439.93 378.39 438.86 375.05 438.21 C 360.76 435.37 346.46 432.58 332.16 429.79 C 327.18 444.27 322.25 458.79 317.27 473.28 C 316.20 477.12 312.45 479.38 308.71 480.00 L 305.62 480.00 C 302.32 479.28 299.41 477.21 297.83 474.21 C 272.76 430.84 247.69 387.48 222.65 344.09 C 213.46 354.03 204.39 364.07 195.23 374.04 C 185.79 363.71 176.40 353.34 166.96 343.01 C 141.33 387.03 115.80 431.11 90.13 475.11 C 86.65 481.94 75.86 480.77 73.02 474.01 C 67.48 459.03 62.84 443.71 57.24 428.74 C 41.90 431.94 26.50 434.85 11.12 437.86 C 6.06 439.06 1.15 435.17 0.00 430.34 L 0.00 427.22 C 0.72 423.43 3.04 420.26 4.88 416.96 C 29.23 374.68 53.63 332.43 77.94 290.12 C 62.97 286.88 48.01 283.60 33.04 280.35 C 38.83 262.09 44.65 243.85 50.49 225.61 C 36.35 212.64 22.12 199.79 7.96 186.84 C 22.12 173.92 36.32 161.04 50.48 148.12 C 44.68 129.85 38.82 111.61 33.04 93.34 C 51.75 89.32 70.43 85.10 89.17 81.20 C 93.53 62.50 97.41 43.69 101.59 24.95 C 119.86 30.76 138.12 36.62 156.37 42.48 C 169.36 28.36 182.21 14.11 195.21 0.00 M 162.51 65.60 C 147.18 60.66 131.83 55.78 116.46 50.93 C 113.02 66.66 109.60 82.39 106.12 98.11 C 90.38 101.54 74.64 104.96 58.90 108.38 C 63.74 123.74 68.68 139.07 73.59 154.40 C 61.71 165.28 49.74 176.07 37.84 186.95 C 49.77 197.87 61.75 208.74 73.69 219.66 C 68.78 235.00 63.86 250.34 58.98 265.69 C 74.73 269.13 90.49 272.53 106.23 275.98 C 109.65 291.67 113.16 307.33 116.49 323.03 C 132.06 318.58 147.33 313.06 162.89 308.58 C 173.56 320.48 184.54 332.12 195.32 343.93 C 206.18 332.03 217.02 320.10 227.88 308.20 C 243.25 313.08 258.61 317.99 273.98 322.88 C 277.51 307.14 280.78 291.34 284.41 275.62 C 300.15 272.29 315.86 268.79 331.59 265.40 C 326.71 250.03 321.74 234.70 316.89 219.33 C 328.81 208.51 340.73 197.68 352.63 186.84 C 340.75 176.11 329.02 165.20 317.02 154.61 C 321.40 139.03 326.90 123.76 331.54 108.24 C 315.79 104.89 300.05 101.43 284.31 97.99 C 280.87 82.27 277.44 66.54 273.98 50.82 C 258.61 55.69 243.26 60.61 227.89 65.49 C 216.95 53.64 206.08 41.72 195.13 29.87 C 184.23 41.76 173.45 53.76 162.51 65.60 M 28.61 413.79 C 39.41 411.89 50.18 409.82 60.98 407.97 C 65.54 407.08 70.70 409.58 72.16 414.13 C 75.96 424.60 79.55 435.14 83.46 445.56 C 104.75 408.50 126.21 371.53 147.53 334.49 C 132.20 339.31 116.91 344.24 101.58 349.02 C 98.33 334.06 95.04 319.11 91.76 304.16 C 70.70 340.70 49.62 377.22 28.61 413.79 M 288.86 348.95 C 272.74 343.84 256.62 338.70 240.50 333.61 C 261.83 370.70 283.21 407.76 304.58 444.83 C 304.75 444.83 305.11 444.83 305.28 444.83 C 308.88 434.90 312.34 424.92 315.97 415.00 C 317.57 410.05 323.04 407.14 328.07 408.03 C 338.69 409.89 349.30 411.84 359.92 413.70 C 339.42 378.14 318.72 342.68 298.31 307.07 C 294.72 320.91 292.10 335.01 288.86 348.95 Z" />
<path fill="#3e4a51" opacity="1.00" d=" M 181.48 100.66 C 198.99 98.07 217.28 100.89 233.10 108.86 C 250.97 117.74 265.58 132.97 273.68 151.22 C 282.46 170.74 283.53 193.57 276.73 213.86 C 270.87 231.54 259.10 247.17 243.78 257.76 C 229.30 267.86 211.66 273.32 194.01 273.18 C 175.94 273.19 157.94 267.35 143.33 256.72 C 127.87 245.59 116.22 229.24 110.88 210.95 C 104.84 190.60 106.62 168.03 115.92 148.93 C 128.07 123.36 153.42 104.60 181.48 100.66 M 182.46 121.69 C 163.49 124.96 146.31 136.98 136.61 153.60 C 127.87 168.32 125.21 186.46 129.26 203.08 C 132.87 218.29 142.09 232.06 154.71 241.27 C 166.27 249.81 180.65 254.42 195.02 254.20 C 210.19 254.10 225.25 248.57 236.90 238.86 C 249.54 228.46 258.13 213.28 260.41 197.06 C 262.51 182.78 259.84 167.84 252.82 155.22 C 245.77 142.39 234.38 132.01 220.95 126.20 C 208.94 120.94 195.37 119.39 182.46 121.69 Z" />
</g>
</svg>