<svg width="24px" height="24px" viewBox="0 0 240 240" version="1.1" xmlns="http://www.w3.org/2000/svg">
<g id="#58656cff">
<path fill="#58656c" opacity="1.00" d=" M 97.42 0.00 L 106.61 0.00 C 129.93 1.03 152.80 10.16 170.21 25.75 C 191.07 44.06 203.93 71.16 204.67 98.93 C 205.68 124.51 196.43 150.16 179.67 169.47 C 199.00 188.76 218.29 208.08 237.61 227.38 C 238.75 228.47 239.46 229.90 240.00 231.37 L 240.00 234.18 C 239.31 236.99 237.16 239.12 234.44 240.00 L 231.61 240.00 C 228.55 239.24 226.60 236.65 224.46 234.56 C 206.09 216.30 187.81 197.95 169.48 179.64 C 150.44 196.18 125.19 205.40 99.95 204.65 C 73.52 204.18 47.56 192.80 29.18 173.84 C 11.94 156.43 1.66 132.67 0.00 108.29 L 0.00 96.80 C 1.50 72.34 11.77 48.47 29.01 30.98 C 46.82 12.47 71.80 1.32 97.42 0.00 M 97.40 14.55 C 72.47 15.79 48.49 28.41 33.17 48.08 C 20.91 63.55 14.14 83.26 14.37 103.01 C 14.44 122.86 21.59 142.55 34.19 157.88 C 47.10 173.77 65.69 184.97 85.83 188.75 C 104.73 192.39 124.81 189.59 141.96 180.82 C 160.84 171.29 176.04 154.73 183.90 135.09 C 191.73 115.80 192.32 93.69 185.54 74.01 C 178.83 54.16 164.71 36.97 146.62 26.43 C 131.86 17.73 114.50 13.58 97.40 14.55 Z" />
</g>
</svg>