<svg width="18px" height="18px" viewBox="0 0 180 180" version="1.1" xmlns="http://www.w3.org/2000/svg">
<g id="#777b7dff">
<path fill="#777b7d" opacity="1.00" d=" M 73.07 0.00 L 80.34 0.00 C 94.84 0.77 109.12 5.56 120.97 13.99 C 137.27 25.42 148.86 43.39 152.32 63.01 C 156.59 85.60 149.87 109.80 134.77 127.10 C 148.95 141.30 163.14 155.51 177.35 169.67 C 178.38 170.74 179.26 171.95 180.00 173.25 L 180.00 175.80 C 179.32 177.76 177.84 179.24 175.91 180.00 L 173.62 180.00 C 170.54 178.75 168.50 176.03 166.19 173.79 C 153.18 160.77 140.16 147.75 127.14 134.74 C 115.34 144.88 100.50 151.51 84.99 153.08 C 65.43 155.26 45.14 149.52 29.67 137.35 C 12.14 123.88 1.07 102.56 0.00 80.49 L 0.00 73.27 C 0.89 54.08 9.21 35.37 23.00 21.98 C 36.25 8.83 54.44 0.95 73.07 0.00 M 66.50 11.61 C 49.78 14.17 34.28 23.54 24.13 37.05 C 14.65 49.47 9.87 65.35 10.92 80.93 C 11.85 96.67 18.75 111.93 29.87 123.09 C 40.69 134.12 55.50 141.16 70.91 142.46 C 84.83 143.73 99.12 140.39 111.02 133.06 C 124.08 125.10 134.23 112.50 139.14 98.01 C 144.24 83.23 143.79 66.62 137.89 52.14 C 131.97 37.38 120.51 24.96 106.30 17.84 C 94.12 11.66 79.99 9.48 66.50 11.61 Z" />
</g>
</svg>
