<svg width="48px" height="38px" viewBox="0 0 480 380" version="1.1" xmlns="http://www.w3.org/2000/svg">
<g id="#3e4a51ff">
<path fill="#3e4a51" opacity="1.00" d=" M 29.48 0.00 L 275.85 0.00 C 286.66 1.12 296.74 7.97 301.21 17.95 C 305.65 27.08 303.88 37.47 304.26 47.24 C 330.54 47.28 356.83 47.22 383.12 47.27 C 391.31 47.33 399.12 51.42 404.55 57.44 C 427.47 82.51 450.42 107.56 473.35 132.62 C 477.25 136.71 479.27 142.19 480.00 147.72 L 480.00 332.75 C 466.27 332.76 452.55 332.74 438.82 332.76 C 436.66 346.12 429.62 358.66 419.08 367.20 C 409.93 374.80 398.32 379.11 386.50 380.00 L 378.30 380.00 C 364.49 378.72 351.04 372.73 341.50 362.56 C 333.69 354.43 328.58 343.86 326.77 332.76 C 268.66 332.74 210.55 332.74 152.44 332.76 C 150.21 346.72 142.58 359.76 131.29 368.32 C 122.45 375.21 111.49 379.06 100.36 380.00 L 92.68 380.00 C 79.11 379.02 65.86 373.35 56.22 363.68 C 47.80 355.41 42.29 344.38 40.39 332.76 C 33.25 332.50 25.82 333.65 18.98 330.99 C 8.68 327.29 1.01 317.41 0.00 306.50 L 0.00 28.90 C 0.72 22.76 2.87 16.71 6.78 11.87 C 12.21 4.89 20.75 0.76 29.48 0.00 M 17.91 30.98 C 17.84 57.40 17.89 83.82 17.89 110.24 C 44.25 110.30 70.62 110.17 96.98 110.30 C 101.60 110.25 105.56 114.39 105.34 118.99 C 105.66 123.63 101.74 127.95 97.06 127.89 C 70.67 128.01 44.28 127.90 17.89 127.95 C 17.88 135.17 17.85 142.40 17.90 149.63 C 54.60 149.64 91.30 149.60 127.99 149.65 C 131.57 149.49 135.31 151.49 136.53 154.97 C 138.90 160.34 135.02 167.40 128.91 167.29 C 91.93 167.46 54.95 167.36 17.97 167.34 C 17.75 185.05 17.93 202.77 17.88 220.49 C 107.38 220.50 196.87 220.50 286.37 220.49 C 286.38 159.34 286.37 98.19 286.38 37.04 C 286.32 33.39 286.74 29.52 285.15 26.11 C 282.97 20.98 277.54 17.52 271.98 17.69 C 191.97 17.69 111.96 17.68 31.95 17.70 C 24.62 17.34 17.82 23.57 17.91 30.98 M 304.25 64.95 C 304.25 148.32 304.24 231.69 304.26 315.05 C 311.77 315.06 319.28 315.07 326.79 315.05 C 328.35 305.38 332.41 296.12 338.62 288.53 C 347.77 277.23 361.47 269.81 375.91 268.21 C 391.00 266.37 406.80 270.67 418.64 280.27 C 429.39 288.82 436.66 301.50 438.80 315.05 C 446.32 315.06 453.84 315.07 461.37 315.05 C 461.38 292.08 461.37 269.10 461.37 246.13 C 448.58 246.10 435.79 246.15 423.01 246.11 C 419.05 246.37 414.90 243.92 413.99 239.92 C 412.37 234.97 415.70 228.90 421.12 228.54 C 434.53 228.28 447.95 228.52 461.37 228.43 C 461.38 215.95 461.38 203.48 461.37 191.00 C 422.92 191.00 384.47 191.00 346.03 191.00 C 342.37 190.95 338.50 191.38 335.08 189.79 C 329.73 187.50 325.87 181.90 326.12 176.02 C 326.14 148.34 326.09 120.65 326.14 92.97 C 326.15 85.23 333.34 78.46 341.05 78.75 C 360.67 78.74 380.29 78.76 399.91 78.74 C 396.77 75.30 393.71 71.80 390.53 68.40 C 387.95 66.14 384.49 64.74 381.04 64.92 C 355.44 64.97 329.85 64.91 304.25 64.95 M 344.09 96.38 C 343.88 122.00 344.05 147.62 344.01 173.24 C 383.13 173.25 422.25 173.26 461.37 173.24 C 461.39 166.15 461.36 159.06 461.39 151.96 C 461.34 149.59 461.43 146.96 459.95 144.95 C 444.77 128.88 429.97 112.45 414.78 96.39 C 391.22 96.46 367.65 96.48 344.09 96.38 M 17.89 238.25 C 17.87 260.16 17.88 282.06 17.88 303.96 C 17.72 309.51 22.51 314.59 27.99 314.99 C 32.15 315.14 36.31 315.10 40.47 314.97 C 43.56 293.31 60.75 274.72 81.97 269.60 C 98.13 265.44 116.10 268.54 129.68 278.32 C 141.79 286.85 150.15 300.40 152.41 315.04 C 197.06 315.08 241.71 315.05 286.37 315.05 C 286.39 289.46 286.35 263.87 286.38 238.28 C 196.89 238.22 107.39 238.26 17.89 238.25 M 89.06 286.18 C 79.10 287.97 69.91 293.82 64.24 302.23 C 57.35 312.24 55.77 325.57 59.88 336.98 C 63.00 345.89 69.63 353.49 78.01 357.84 C 89.07 363.67 102.91 363.80 114.09 358.21 C 122.13 354.25 128.67 347.34 132.14 339.08 C 138.41 324.66 134.84 306.53 123.15 295.89 C 114.21 287.42 101.11 283.90 89.06 286.18 M 373.43 286.60 C 363.68 288.89 354.88 295.11 349.67 303.70 C 343.59 313.49 342.36 326.06 346.22 336.90 C 349.09 345.11 354.90 352.23 362.36 356.70 C 372.60 362.93 385.72 364.00 396.90 359.76 C 405.49 356.57 412.84 350.15 417.10 342.03 C 422.67 331.63 423.04 318.65 418.15 307.92 C 410.95 291.18 390.91 282.06 373.43 286.60 Z" />
<path fill="#3e4a51" opacity="1.00" d=" M 92.42 307.66 C 102.54 304.82 113.68 313.43 113.31 323.97 C 113.56 333.79 103.79 342.12 94.13 340.48 C 84.58 339.48 77.38 329.23 80.01 319.92 C 81.43 313.94 86.45 309.05 92.42 307.66 Z" />
<path fill="#3e4a51" opacity="1.00" d=" M 379.41 307.52 C 389.03 305.24 399.38 313.07 399.65 322.98 C 400.48 332.63 391.49 341.43 381.89 340.61 C 372.56 340.39 364.65 331.27 366.01 321.98 C 366.73 314.92 372.47 308.83 379.41 307.52 Z" />
</g>
</svg>