<svg width="17px" height="15px" viewBox="0 0 168 140" version="1.1" xmlns="http://www.w3.org/2000/svg">
<g id="#fafafaff">
<path fill="#fafafa" opacity="1.00" d=" M 100.59 4.49 C 113.77 -2.65 131.28 0.59 141.22 11.75 C 148.96 10.16 156.37 7.17 163.16 3.14 C 160.40 11.08 155.20 18.18 148.04 22.68 C 154.87 21.50 161.64 19.97 168.00 17.14 L 168.00 17.55 C 162.46 23.69 157.50 30.55 150.53 35.27 C 151.67 66.46 138.30 98.14 114.28 118.25 C 98.38 131.71 77.76 139.11 57.00 139.70 C 37.05 140.64 16.98 134.92 0.30 123.99 C 18.29 126.19 36.99 120.91 51.10 109.52 C 36.57 109.34 23.31 98.85 19.13 85.05 C 24.23 85.97 29.48 85.80 34.51 84.56 C 27.05 82.78 20.11 78.72 15.27 72.73 C 9.88 66.32 7.15 57.95 7.11 49.62 C 11.92 52.17 17.20 53.68 22.62 54.11 C 17.06 50.01 12.45 44.51 9.96 38.02 C 5.93 28.05 6.86 16.38 12.05 7.01 C 29.00 28.50 55.22 42.45 82.63 43.79 C 79.20 28.62 86.53 11.52 100.59 4.49 Z" />
</g>
</svg>