<svg width="11px" height="14px" viewBox="0 0 97 128" version="1.1" xmlns="http://www.w3.org/2000/svg">
<g id="#fafafaff">
<path fill="#fafafa" opacity="1.00" d=" M 3.86 2.24 C 19.13 0.38 34.57 -0.21 49.93 0.53 C 62.55 1.16 76.08 4.42 85.03 13.94 C 92.88 22.39 94.08 36.17 87.77 45.84 C 83.79 52.17 77.16 56.25 70.29 58.81 C 78.04 60.96 85.53 65.03 90.38 71.59 C 99.06 83.16 97.82 100.62 88.24 111.29 C 81.22 119.68 70.48 123.64 60.02 125.56 C 40.20 129.19 19.93 127.54 0.00 126.31 L 0.00 18.95 C -8.34 10.26 -2.56 2.53 3.86 2.24 M 29.46 21.62 C 29.40 31.33 29.45 41.03 29.44 50.74 C 38.91 50.66 49.62 51.85 57.61 45.67 C 64.40 40.56 64.09 28.65 56.63 24.31 C 48.43 19.58 38.48 20.85 29.46 21.62 M 29.44 71.08 C 29.45 82.83 29.41 94.59 29.46 106.35 C 35.62 106.78 41.87 107.00 48.01 106.13 C 53.48 105.25 59.17 103.10 62.57 98.51 C 67.50 91.65 66.35 80.64 59.00 75.91 C 50.31 70.12 39.37 71.14 29.44 71.08 Z" />
</g>
</svg>
